<?xml version="1.0" encoding="utf-8"?>
<!-- Generator: Adobe Illustrator 27.5.0, SVG Export Plug-In . SVG Version: 6.00 Build 0)  -->
<svg version="1.1" id="Flat" xmlns="http://www.w3.org/2000/svg" xmlns:xlink="http://www.w3.org/1999/xlink" x="0px" y="0px"
	 viewBox="0 0 800 800" style="enable-background:new 0 0 800 800;" xml:space="preserve">
<style type="text/css">
	.st0{fill:#f8f8ff;}
</style>
<path class="st0" d="M528,400c0,70.7-57.3,128-128,128s-128-57.3-128-128s57.3-128,128-128C470.7,272.1,527.9,329.3,528,400z
	 M800,224v352c-0.1,123.7-100.3,223.9-224,224H224C100.3,799.9,0.1,699.7,0,576V224C0.1,100.3,100.3,0.1,224,0h352
	C699.7,0.1,799.9,100.3,800,224z M592,400c0-106-86-192-192-192s-192,86-192,192s86,192,192,192C506,591.9,591.9,506,592,400z
	 M656,192c0-26.5-21.5-48-48-48s-48,21.5-48,48s21.5,48,48,48S656,218.5,656,192z"/>
</svg>
