<?xml version="1.0" encoding="UTF-8"?><svg id="Camada_2" xmlns="http://www.w3.org/2000/svg" viewBox="0 0 20.08 19.88"><defs><style>.cls-1{fill:#f8f8ff;}</style></defs><g id="Camada_1-2"><path class="cls-1" d="m10.09,0c2.82,0,5.19.97,7.11,2.91s2.88,4.28,2.88,7.03c0,1.55-.33,2.82-1,3.84-.65,1.01-1.61,1.52-2.86,1.52s-2.25-.63-2.88-1.88c-.84,1.25-2.04,1.88-3.6,1.88-1.41,0-2.59-.49-3.55-1.47-.96-1-1.44-2.26-1.44-3.79s.48-2.76,1.44-3.76c.96-1,2.11-1.49,3.45-1.49s2.42.51,3.3,1.52h.1v-1.16h1.85v6.72c0,.45.12.85.36,1.21.26.36.64.54,1.16.54,1.22,0,1.83-1.23,1.83-3.68,0-2.27-.79-4.18-2.37-5.74s-3.5-2.34-5.77-2.34c-2.27,0-4.19.78-5.77,2.34-1.58,1.56-2.37,3.48-2.37,5.74s.79,4.18,2.37,5.74c1.58,1.56,3.5,2.34,5.77,2.34,1.22,0,2.31-.24,3.27-.72l.72,1.75c-1.2.55-2.53.82-3.99.82-2.85,0-5.24-.96-7.19-2.88-1.94-1.94-2.91-4.29-2.91-7.06S.97,4.85,2.91,2.91C4.87.97,7.26,0,10.09,0m-2.4,12.44c.62.6,1.36.9,2.21.9s1.59-.3,2.19-.9c.62-.6.93-1.4.93-2.4s-.31-1.79-.93-2.4c-.6-.6-1.33-.9-2.19-.9-.86,0-1.6.3-2.21.9-.6.6-.9,1.4-.9,2.4s.3,1.79.9,2.4"/></g></svg>