<?xml version="1.0" encoding="UTF-8"?><svg id="Camada_1" xmlns="http://www.w3.org/2000/svg" viewBox="0 0 24.91 23.78"><defs><style>.cls-1{fill:#0072d8;}</style></defs><path class="cls-1" d="m13.34.64l2.3,7.08c.12.38.48.64.89.64h7.44c.9,0,1.28,1.16.55,1.69l-6.02,4.38c-.33.24-.46.66-.34,1.04l2.3,7.08c.28.86-.7,1.57-1.44,1.04l-6.02-4.38c-.33-.24-.77-.24-1.1,0l-6.02,4.38c-.73.53-1.71-.18-1.44-1.04l2.3-7.08c.12-.38-.01-.81-.34-1.04L.39,10.06c-.73-.53-.36-1.69.55-1.69h7.44c.4,0,.76-.26.89-.64L11.57.64c.28-.86,1.5-.86,1.77,0Z"/></svg>