<?xml version="1.0" encoding="UTF-8"?><svg id="Camada_2" xmlns="http://www.w3.org/2000/svg" viewBox="0 0 19.88 19.88"><defs><style>.cls-1{fill:#f8f8ff;}</style></defs><g id="Camada_1-2"><path class="cls-1" d="m0,2.53C-.09,1.11,1.11,0,2.53,0h3.04c.73,0,1.39.44,1.67,1.11l1.27,3.06c.31.75.09,1.61-.54,2.11l-.79.64c-.35.28-.47.77-.26,1.18,1.08,2.07,2.67,3.82,4.61,5.09.41.27.95.16,1.25-.22l.83-1.04c.5-.63,1.36-.85,2.11-.54l3.05,1.27c.67.28,1.11.94,1.11,1.67v3.06c0,1.42-1.14,2.58-2.56,2.48C8.25,19.23.65,11.63,0,2.53Z"/></g></svg>