<?xml version="1.0" encoding="UTF-8"?><svg id="Modo_de_isolamento" xmlns="http://www.w3.org/2000/svg" viewBox="0 0 120 33.75"><defs><style>.cls-1{fill:gold;}.cls-2{fill:#0057b7;}</style></defs><path id="rect7260" class="cls-2" d="m116.25,3.75v-1.87s1.87,0,1.87,0v1.87s-1.87,0-1.87,0Zm-3.75,3.75v-1.87s1.87,0,1.87,0v1.87s-1.87,0-1.87,0Zm-3.75,3.75v-1.87s1.87,0,1.87,0v1.87s-1.87,0-1.87,0Zm-3.75,3.75v-1.87s1.87,0,1.87,0v1.87s-1.87,0-1.87,0Zm-3.75,3.75v-1.87s1.87,0,1.87,0v1.87s-1.87,0-1.87,0Zm-3.75,3.75v-1.87s1.87,0,1.87,0v1.87s-1.87,0-1.87,0Zm-3.75,3.75v-1.87s1.87,0,1.87,0v1.87s-1.87,0-1.87,0Zm-3.75-15v-1.87h-1.88v1.88h1.88Zm1.87,0h-1.87v1.88h1.88v-1.88Zm1.87-1.88h-1.87v1.88h1.88v-1.88Zm0-1.87v1.87h1.88v-1.88h-1.88Zm-1.88-1.87v1.87h1.88v-1.88h-1.88Zm-1.87,0h1.87v-1.88h-1.88v1.88Zm-1.87,1.88h1.87v-1.88h-1.88v1.88Zm-1.87,1.88h1.87v-1.88h-1.88v1.88Zm0,16.87v-1.87s1.87,0,1.87,0v1.87s-1.87,0-1.87,0Zm-3.75-3.75v-1.87s1.87,0,1.87,0v1.87s-1.87,0-1.87,0Zm-3.75-3.75v-1.87s1.87,0,1.87,0v1.87s-1.87,0-1.87,0Zm-3.75-3.75v-1.87s1.87,0,1.87,0v1.87s-1.87,0-1.87,0Zm-3.75-3.75v-1.87s1.87,0,1.87,0v1.87s-1.87,0-1.87,0Zm-3.75-3.75v-1.87s1.87,0,1.87,0v1.87s-1.87,0-1.87,0Zm-3.75-3.75v-1.87s1.87,0,1.87,0v1.87s-1.87,0-1.87,0Zm-1.87,22.5v1.87h1.88v-1.88h-1.88Zm-1.87,0h1.87v-1.88h-1.88v1.88Zm-1.87,1.88h1.87v-1.88h-1.88v1.88Zm-1.88-24.37v-1.87s1.87,0,1.87,0v1.87s-1.87,0-1.87,0Zm-3.75,3.75v-1.87s1.87,0,1.87,0v1.87s-1.87,0-1.87,0Zm-3.75,3.75v-1.87s1.87,0,1.87,0v1.87s-1.87,0-1.87,0Zm-3.75,3.75v-1.87s1.87,0,1.87,0v1.87s-1.87,0-1.87,0Zm-3.75,3.75v-1.87s1.87,0,1.87,0v1.87s-1.87,0-1.87,0Zm-3.75,3.75v-1.87s1.87,0,1.87,0v1.87s-1.87,0-1.87,0Zm-3.75,3.75v-1.87s1.87,0,1.87,0v1.87s-1.87,0-1.87,0Zm-3.75-15v-1.87h-1.88v1.88h1.88Zm1.87,0h-1.87v1.88h1.88v-1.88Zm1.87-1.88h-1.87v1.88h1.88v-1.88Zm0-1.87v1.87h1.88v-1.88h-1.88Zm-1.88-1.87v1.87h1.88v-1.88h-1.88Zm-1.87,0h1.87v-1.88h-1.88v1.88Zm-1.87,1.88h1.87v-1.88h-1.88v1.88Zm-1.87,1.88h1.87v-1.88h-1.88v1.88Zm0,16.87v-1.87s1.87,0,1.87,0v1.87s-1.87,0-1.87,0Zm-3.75-3.75v-1.87s1.87,0,1.87,0v1.87s-1.87,0-1.87,0Zm-3.75-3.75v-1.87s1.87,0,1.87,0v1.87s-1.87,0-1.87,0Zm-3.75-3.75v-1.87s1.87,0,1.87,0v1.87s-1.87,0-1.87,0Zm-3.75-3.75v-1.87s1.87,0,1.87,0v1.87s-1.87,0-1.87,0Zm-3.75-3.75v-1.87s1.87,0,1.87,0v1.87s-1.87,0-1.87,0Zm-3.75-3.75v-1.87s1.87,0,1.87,0v1.87s-1.87,0-1.87,0Zm-1.87,22.5v-1.87H0v1.88h1.88ZM0,31.88h1.87s0,1.87,0,1.87h1.87v-1.88s1.87,0,1.87,0v-1.87s1.87,0,1.87,0v1.87h1.88s0,1.87,0,1.87h1.87v-1.88s1.87,0,1.87,0v-1.87s1.87,0,1.87,0v1.87h1.88s0,1.87,0,1.87h1.87v-1.88s1.87,0,1.87,0v-1.87s1.87,0,1.87,0v1.87h1.88s0,1.87,0,1.87h1.87v-1.88s1.87,0,1.87,0v-1.87s1.87,0,1.87,0v1.87h1.88s0,1.87,0,1.87h1.87v-1.88s1.87,0,1.87,0v-1.87s1.87,0,1.87,0v1.87h1.88s0,1.87,0,1.87h1.87v-1.88s1.87,0,1.87,0v-1.87s1.87,0,1.87,0v1.87h1.88s0,1.87,0,1.87h1.87v-1.88s1.87,0,1.87,0v-1.87s1.87,0,1.87,0v1.87h1.88s0,1.87,0,1.87h1.87v-1.88s1.87,0,1.87,0v-1.87s1.87,0,1.87,0v1.87h1.88s0,1.87,0,1.87h1.87v-1.88s1.87,0,1.87,0v-1.87s1.87,0,1.87,0v1.87h1.88s0,1.87,0,1.87h1.87v-1.88s1.87,0,1.87,0v-1.87s1.87,0,1.87,0v1.87h1.88s0,1.87,0,1.87h1.87v-1.88s1.87,0,1.87,0v-1.87s1.87,0,1.87,0v1.87h1.88s0,1.87,0,1.87h1.87v-1.88s1.87,0,1.87,0v-1.87s1.87,0,1.87,0v1.87h1.88s0,1.87,0,1.87h1.87v-1.88s1.87,0,1.87,0v-1.87s1.87,0,1.87,0v1.87h1.88s0,1.87,0,1.87h1.87v-1.88s1.87,0,1.87,0v-1.87s1.87,0,1.87,0v1.87h1.88s0,1.87,0,1.87h1.87v-1.88s1.87,0,1.87,0v-1.87s1.87,0,1.87,0v1.87h1.88s0,1.87,0,1.87h1.87v-1.88s1.87,0,1.87,0v-1.87s1.87,0,1.87,0v-1.87s0-1.87,0-1.87h-1.87v1.88s-20.62,0-20.62,0v-3.75s1.87,0,1.87,0h1.87v-3.75s1.87,0,1.87,0h1.87v-3.75s1.87,0,1.87,0h1.87v-3.75s1.87,0,1.87,0h1.87v-3.75s1.87,0,1.87,0h1.87v-1.88s0-1.87,0-1.87h1.87s1.87,0,1.87,0V1.87s0-1.87,0-1.87h-1.87s-1.87,0-1.87,0h-1.87v1.88s0,1.87,0,1.87h-1.87s-1.87,0-1.87,0v1.87s0,1.87,0,1.87h-1.87s-1.87,0-1.87,0v1.87s0,1.87,0,1.87h-1.87s-1.87,0-1.87,0v1.87s0,1.87,0,1.87h-1.87s-1.87,0-1.87,0v1.87s0,1.87,0,1.87h-1.87s-1.87,0-1.87,0v1.87s0,1.87,0,1.87h-1.87s-1.87,0-1.87,0v3.75s0,1.87,0,1.87h-1.87s0-1.87,0-1.87v-3.75h-1.88s-1.87,0-1.87,0v-1.87s0-1.87,0-1.87h-1.87s-1.87,0-1.87,0v-1.87s0-1.87,0-1.87h-1.87s-1.87,0-1.87,0v-1.87s0-1.87,0-1.87h-1.87s-1.87,0-1.87,0v-1.87s0-1.87,0-1.87h-1.87s-1.87,0-1.87,0v-1.87s0-1.87,0-1.87h-1.87s-1.87,0-1.87,0v-1.87s0-1.87,0-1.87h-1.87s-1.87,0-1.87,0h-1.87v1.88s0,3.75,0,3.75h1.87s1.87,0,1.87,0v1.87s0,1.87,0,1.87h1.87s1.87,0,1.87,0v3.75h1.88s1.87,0,1.87,0v3.75h1.88s1.87,0,1.87,0v3.75h1.88s1.87,0,1.87,0v3.75h1.88s1.87,0,1.87,0v3.75s-46.87,0-46.87,0v-3.75s1.87,0,1.87,0h1.87v-3.75s1.87,0,1.87,0h1.87v-3.75s1.87,0,1.87,0h1.87v-3.75s1.87,0,1.87,0h1.87v-3.75s1.87,0,1.87,0h1.87v-1.88s0-1.87,0-1.87h1.87s1.87,0,1.87,0V1.88s0-1.87,0-1.87h-1.87s-1.87,0-1.87,0h-1.87v1.88s0,1.87,0,1.87h-1.87s-1.87,0-1.87,0v1.87s0,1.87,0,1.87h-1.87s-1.87,0-1.87,0v1.87s0,1.87,0,1.87h-1.87s-1.87,0-1.87,0v1.87s0,1.87,0,1.87h-1.87s-1.87,0-1.87,0v1.87s0,1.87,0,1.87h-1.87s-1.87,0-1.87,0v1.87s0,1.87,0,1.87h-1.87s-1.87,0-1.87,0v3.75s0,1.87,0,1.87h-1.87s0-1.87,0-1.87v-3.75h-1.88s-1.87,0-1.87,0v-1.87s0-1.87,0-1.87h-1.87s-1.87,0-1.87,0v-1.87s0-1.87,0-1.87h-1.87s-1.87,0-1.87,0v-1.87s0-1.87,0-1.87h-1.87s-1.87,0-1.87,0v-1.87s0-1.87,0-1.87h-1.87s-1.87,0-1.87,0v-1.87s0-1.87,0-1.87h-1.87s-1.87,0-1.87,0v-1.87s0-1.87,0-1.87h-1.87s-1.87,0-1.87,0h-1.87v1.88s0,3.75,0,3.75h1.87s1.87,0,1.87,0v1.87s0,1.87,0,1.87h1.87s1.87,0,1.87,0v3.75h1.88s1.87,0,1.87,0v3.75h1.88s1.87,0,1.87,0v3.75h1.88s1.87,0,1.87,0v3.75h1.88s1.87,0,1.87,0v3.75s-20.62,0-20.62,0v-1.87h-1.88v1.88s-1.87,0-1.87,0v1.87s0,1.87,0,1.87Z"/><path id="path4686" class="cls-1" d="m0,28.13h1.87v-1.88H0v1.88ZM0,13.13h1.87v-1.88s1.87,0,1.87,0v-1.87h-1.88s0-1.87,0-1.87H0v1.88s0,1.87,0,1.87v1.87Zm1.88,18.75h1.87v-1.88h-1.88v1.88Zm0-9.37h1.87s0,1.87,0,1.87h1.87v-1.88s1.87,0,1.87,0v-1.87s1.87,0,1.87,0v-1.87s1.87,0,1.87,0v-3.75h-1.88s0-1.87,0-1.87h-1.87s0-1.87,0-1.87h-1.87v1.88s-1.87,0-1.87,0v1.87s-1.87,0-1.87,0v3.75s0,1.87,0,1.87v1.87Zm9.37-3.75v1.87s-1.87,0-1.87,0v1.87s-1.87,0-1.87,0v1.87s-1.87,0-1.87,0v1.87h1.88s0,1.87,0,1.87h1.87s1.87,0,1.87,0h3.75v-1.88s1.87,0,1.87,0v-1.87s1.87,0,1.87,0v-1.87h-1.88s0-1.87,0-1.87h-1.87s0-1.87,0-1.87h-3.75Zm-1.87,13.12h1.87v-1.88h-1.88v1.88Zm0-30h3.75s0,1.87,0,1.87v1.87h3.75s0,1.87,0,1.87v1.87h3.75s0,1.87,0,1.87v1.87h3.75s0,1.87,0,1.87v1.87h3.75s0,1.87,0,1.87v1.87h1.88v-1.88s1.87,0,1.87,0v1.87h1.88v-1.88s0-1.87,0-1.87h3.75v-1.88s0-1.87,0-1.87h3.75v-1.88s0-1.87,0-1.87h3.75v-1.88s1.87,0,1.87,0v-1.87s1.87,0,1.87,0v-1.87s0-1.87,0-1.87h3.75V0H9.37v1.88Zm7.5,30h1.87v-1.88h-1.88v1.88Zm1.87-3.75h1.87v-1.88h-1.88v1.88Zm0-22.5v-1.87s1.87,0,1.87,0v-1.87s1.87,0,1.87,0v1.87h1.88s0,1.87,0,1.87h-1.87v1.88s-1.87,0-1.87,0v-1.87h-1.88Zm5.63,26.25h1.87v-1.88h-1.88v1.88Zm0-22.5v-1.87s1.87,0,1.87,0v-1.87s0-1.87,0-1.87h3.75v-1.88s1.87,0,1.87,0v1.87h3.75s0,1.87,0,1.87v1.87h1.88s0,1.87,0,1.87h-1.87v1.88s0,1.87,0,1.87h-3.75v1.88s-1.87,0-1.87,0v-1.87h-3.75s0-1.87,0-1.87v-1.87h-1.88Zm3.75,0h1.87s0,1.87,0,1.87h1.87v-1.88s1.87,0,1.87,0v-1.87h-1.88s0-1.87,0-1.87h-1.87v1.88s-1.87,0-1.87,0v1.87Zm3.75,22.5h1.87v-1.88h-1.88v1.88Zm7.5,0h1.87v-1.88h-1.88v1.88Zm0-26.25v-1.87s1.87,0,1.87,0v-1.87s1.87,0,1.87,0v1.87h1.88s0,1.87,0,1.87h-1.87v1.88s-1.87,0-1.87,0v-1.87h-1.88Zm1.88,22.5h1.87v-1.88h-1.88v1.88Zm1.87-3.75h1.87s0,1.87,0,1.87h1.87s0,1.87,0,1.87h3.75s1.87,0,1.87,0h1.87v-1.88s1.87,0,1.87,0v-1.87h-1.88s0-1.87,0-1.87h-1.87s0-1.87,0-1.87h-1.87s0-1.87,0-1.87h-3.75v1.88s-1.87,0-1.87,0v1.87s-1.87,0-1.87,0v1.87Zm7.5-5.63h1.87s0,1.87,0,1.87h1.87s0,1.87,0,1.87h1.87s0,1.87,0,1.87h1.87v-1.88s1.87,0,1.87,0v-1.87s0-1.87,0-1.87v-3.75h-1.88s0-1.87,0-1.87h-1.87s0-1.87,0-1.87h-1.87v1.88s-1.87,0-1.87,0v1.87s-1.87,0-1.87,0v3.75Zm-3.75,13.13h1.87v-1.88h-1.88v1.88Zm7.5,0h1.87v-1.88h-1.88v1.88Zm3.75-20.62h1.87s0,1.87,0,1.87h1.87v-1.88s1.87,0,1.87,0v-1.87h-1.88s0-1.87,0-1.87h-1.87v1.88s-1.87,0-1.87,0v1.87Zm1.88,16.87h1.87v-1.88h-1.88v1.88Zm1.88,3.75h1.87v-1.88h-1.88v1.88Zm0-9.37h1.87s0,1.87,0,1.87h1.87v-1.88s1.87,0,1.87,0v-1.87s1.87,0,1.87,0v-1.87s1.87,0,1.87,0v-3.75h-1.88s0-1.87,0-1.87h-1.87s0-1.87,0-1.87h-1.87v1.88s-1.87,0-1.87,0v1.87s-1.87,0-1.87,0v3.75s0,1.87,0,1.87v1.87Zm9.37-3.75v1.87s-1.87,0-1.87,0v1.87s-1.87,0-1.87,0v1.87s-1.87,0-1.87,0v1.87h1.88s0,1.87,0,1.87h1.87s1.87,0,1.87,0h3.75v-1.88s1.87,0,1.87,0v-1.87s1.87,0,1.87,0v-1.87h-1.88s0-1.87,0-1.87h-1.87s0-1.87,0-1.87h-3.75Zm-1.87,13.12h1.87v-1.88h-1.88v1.88Zm0-30h3.75s0,1.87,0,1.87v1.87h3.75s0,1.87,0,1.87v1.87h3.75s0,1.87,0,1.87v1.87h3.75s0,1.87,0,1.87v1.87h3.75s0,1.87,0,1.87v1.87h1.88v-1.88s1.87,0,1.87,0v1.87h1.88v-1.88s0-1.87,0-1.87h3.75v-1.88s0-1.87,0-1.87h3.75v-1.88s0-1.87,0-1.87h3.75v-1.88s1.87,0,1.87,0v-1.87s1.87,0,1.87,0v-1.87s0-1.87,0-1.87h3.75V0h-43.12v1.88Zm7.5,30h1.87v-1.88h-1.88v1.88Zm1.87-3.75h1.87v-1.88h-1.88v1.88Zm0-22.5v-1.87s1.87,0,1.87,0v-1.87s1.87,0,1.87,0v1.87h1.88s0,1.87,0,1.87h-1.87v1.88s-1.87,0-1.87,0v-1.87h-1.88Zm5.63,26.25h1.87v-1.88h-1.88v1.88Zm0-22.5v-1.87s1.87,0,1.87,0v-1.87s0-1.87,0-1.87h3.75v-1.88s1.87,0,1.87,0v1.87h3.75s0,1.87,0,1.87v1.87h1.88s0,1.87,0,1.87h-1.87v1.88s0,1.87,0,1.87h-3.75v1.88s-1.87,0-1.87,0v-1.87h-3.75s0-1.87,0-1.87v-1.87h-1.88Zm3.75,0h1.87s0,1.87,0,1.87h1.87v-1.88s1.87,0,1.87,0v-1.87h-1.88s0-1.87,0-1.87h-1.87v1.88s-1.87,0-1.87,0v1.87Zm3.75,22.5h1.87v-1.88h-1.88v1.88Zm7.5,0h1.87v-1.88h-1.88v1.88Zm0-26.25v-1.87s1.87,0,1.87,0v-1.87s1.87,0,1.87,0v1.87h1.88s0,1.87,0,1.87h-1.87v1.88s-1.87,0-1.87,0v-1.87h-1.88Zm1.88,22.5h1.87v-1.88h-1.88v1.88Zm1.87-3.75h1.87s0,1.87,0,1.87h1.87s0,1.87,0,1.87h3.75s1.87,0,1.87,0h1.87v-1.88s1.87,0,1.87,0v-1.87h-1.88s0-1.87,0-1.87h-1.87s0-1.87,0-1.87h-1.87s0-1.87,0-1.87h-3.75v1.88s-1.87,0-1.87,0v1.87s-1.87,0-1.87,0v1.87Zm7.5-5.63h1.87s0,1.87,0,1.87h1.87s0,1.87,0,1.87h1.87s0,1.87,0,1.87h1.87v-1.88s1.87,0,1.87,0v-7.5h-1.88s0-1.87,0-1.87h-1.87s0-1.87,0-1.87h-1.87v1.88s-1.87,0-1.87,0v1.87s-1.87,0-1.87,0v3.75Zm-3.75,13.13h1.87v-1.88h-1.88v1.88Zm7.5,0h1.87v-1.88h-1.88v1.88Zm3.75-20.62h1.87v-1.88h-1.88v1.88Z"/></svg>