<?xml version="1.0" encoding="UTF-8"?><svg id="Camada_1" xmlns="http://www.w3.org/2000/svg" viewBox="0 0 338.42 338.42"><defs><style>.cls-1{fill:gold;}.cls-2{fill:#0057b7;}.cls-3{fill:#f8f8ff;}.cls-4{fill:#ffe471;}</style></defs><path class="cls-2" d="m0,173.21C0,100.72,46.69,39.13,111.64,16.88c16.8-5.76,191.68,40.92,211.96,109.2,4.44,14.93,6.82,30.75,6.82,47.13,0,91.24-73.97,165.21-165.21,165.21C73.97,338.42,0,264.45,0,173.21Z"/><path class="cls-4" d="m113.38,93.53L244.55,28.27c-23.55-12.92-50.58-20.27-79.34-20.27-19.26,0-37.75,3.31-54.94,9.37,25.18,17.03,38.12,46.59,3.1,76.16Z"/><path class="cls-1" d="m111.31,237.46c39.9-11.53,71.54-51.75,95.62-48.31,24.08,3.44,4.84,31.65-4.15,43.03-77.5,98.14,110.98,23.85,124.26-92.4-12.74-62.02-60.24-111.35-121.24-126.75-12.02,30.86-62.76,65.67-92.42,80.5-33.02,16.51-43.34,33.71-26.14,46.09,17.2,12.38,73.61-5.5,61.91,17.2-11.69,22.7-82.55,36.46-90.11,52.97s12.38,39.21,52.28,27.68Z"/><path class="cls-4" d="m86.74,192.2c-13.71,5.87-24.94,11.54-27.71,17.58-7.57,16.51,12.38,39.21,52.28,27.68,20.82-6.02,39.4-19.85,55.82-31.21-31.75,14.77-82.26,17.67-80.39-14.05Z"/><path class="cls-1" d="m135.9,302.87c-12.75-.29-15.14-10.34-13.55-19.89,1.59-9.55,26.29-18.43,33.6-10.21,7.3,8.22,3.19,30.62-20.05,30.09Z"/><path class="cls-3" d="m261.33,150.18c-5.14,0-9.41-3.18-10.89-8.1l-11.98-39.88c-.33-1.09-1.17-1.93-2.25-2.25l-39.88-11.98c-4.92-1.48-8.1-5.75-8.1-10.88s3.18-9.41,8.1-10.89l39.88-11.98c1.09-.33,1.93-1.17,2.25-2.26l11.98-39.88c1.48-4.92,5.75-8.1,10.89-8.1s9.41,3.18,10.88,8.1l11.98,39.88c.33,1.09,1.17,1.93,2.25,2.25l39.88,11.98c4.92,1.48,8.1,5.75,8.1,10.89s-3.18,9.41-8.1,10.88l-39.88,11.98c-1.09.33-1.93,1.17-2.25,2.25l-11.98,39.88c-1.48,4.92-5.75,8.1-10.88,8.1Z"/><path class="cls-1" d="m261.33,8c3,0,6,1.75,7.05,5.25l11.98,39.88c.71,2.37,2.57,4.22,4.94,4.94l39.88,11.98c7,2.1,7,12.01,0,14.11l-39.88,11.98c-2.37.71-4.22,2.57-4.94,4.94l-11.98,39.88c-1.05,3.5-4.05,5.25-7.05,5.25s-6-1.75-7.05-5.25l-11.98-39.88c-.71-2.37-2.57-4.22-4.94-4.94l-39.88-11.98c-7-2.1-7-12.01,0-14.11l39.88-11.98c2.37-.71,4.22-2.57,4.94-4.94l11.98-39.88c1.05-3.5,4.05-5.25,7.05-5.25m0-8c-6.84,0-12.75,4.4-14.72,10.95l-11.88,39.55-39.55,11.88c-6.55,1.97-10.95,7.88-10.95,14.72s4.4,12.75,10.95,14.72l39.55,11.88,11.88,39.55c1.97,6.55,7.88,10.95,14.72,10.95s12.75-4.4,14.72-10.95l11.88-39.55,39.55-11.88c6.55-1.97,10.95-7.88,10.95-14.72s-4.4-12.75-10.95-14.72l-39.55-11.88-11.88-39.55c-1.97-6.55-7.88-10.95-14.72-10.95h0Z"/></svg>