<?xml version="1.0" encoding="UTF-8"?><svg id="Camada_2" xmlns="http://www.w3.org/2000/svg" viewBox="0 0 1034.98 338.42"><defs><style>.cls-1{fill:gold;}.cls-2{fill:#0057b7;}.cls-3{fill:#f8f8ff;}.cls-4{fill:#ffe471;}</style></defs><g id="Camada_1-2"><path class="cls-2" d="m0,173.21C0,100.72,46.69,39.13,111.64,16.88c16.8-5.76,215.08,121.36,215.36,122.74,2.24,10.85,3.42,22.08,3.42,33.59,0,91.24-73.97,165.21-165.21,165.21C73.97,338.42,0,264.45,0,173.21Z"/><path class="cls-4" d="m113.38,93.53L244.55,28.27c-23.55-12.92-50.58-20.27-79.34-20.27-19.26,0-37.75,3.31-54.94,9.37,25.18,17.03,38.12,46.59,3.1,76.16Z"/><path class="cls-1" d="m111.31,237.46c39.9-11.53,71.54-51.75,95.62-48.31,24.08,3.44,4.84,31.65-4.15,43.03-77.5,98.14,110.98,23.85,124.26-92.4-12.74-62.02-60.24-111.35-121.24-126.75-12.02,30.86-62.76,65.67-92.42,80.5-33.02,16.51-43.34,33.71-26.14,46.09,17.2,12.38,73.61-5.5,61.91,17.2-11.69,22.7-82.55,36.46-90.11,52.97s12.38,39.21,52.28,27.68Z"/><path class="cls-4" d="m86.74,192.2c-13.71,5.87-24.94,11.54-27.71,17.58-7.57,16.51,12.38,39.21,52.28,27.68,20.82-6.02,39.4-19.85,55.82-31.21-31.75,14.77-82.26,17.67-80.39-14.05Z"/><path class="cls-1" d="m135.9,302.87c-12.75-.29-15.14-10.34-13.55-19.89,1.59-9.55,26.29-18.43,33.6-10.21,7.3,8.22,3.19,30.62-20.05,30.09Z"/><path class="cls-3" d="m261.33,150.18c-5.14,0-9.41-3.18-10.89-8.1l-11.98-39.88c-.33-1.09-1.17-1.93-2.25-2.25l-39.88-11.98c-4.92-1.48-8.1-5.75-8.1-10.88s3.18-9.41,8.1-10.89l39.88-11.98c1.09-.33,1.93-1.17,2.25-2.26l11.98-39.88c1.48-4.92,5.75-8.1,10.89-8.1s9.41,3.18,10.88,8.1l11.98,39.88c.33,1.09,1.17,1.93,2.25,2.25l39.88,11.98c4.92,1.48,8.1,5.75,8.1,10.89s-3.18,9.41-8.1,10.88l-39.88,11.98c-1.09.33-1.93,1.17-2.25,2.25l-11.98,39.88c-1.48,4.92-5.75,8.1-10.88,8.1Z"/><path class="cls-1" d="m261.33,8c3,0,6,1.75,7.05,5.25l11.98,39.88c.71,2.37,2.57,4.22,4.94,4.94l39.88,11.98c7,2.1,7,12.01,0,14.11l-39.88,11.98c-2.37.71-4.22,2.57-4.94,4.94l-11.98,39.88c-1.05,3.5-4.05,5.25-7.05,5.25s-6-1.75-7.05-5.25l-11.98-39.88c-.71-2.37-2.57-4.22-4.94-4.94l-39.88-11.98c-7-2.1-7-12.01,0-14.11l39.88-11.98c2.37-.71,4.22-2.57,4.94-4.94l11.98-39.88c1.05-3.5,4.05-5.25,7.05-5.25m0-8c-6.84,0-12.75,4.4-14.72,10.95l-11.88,39.55-39.55,11.88c-6.55,1.97-10.95,7.88-10.95,14.72s4.4,12.75,10.95,14.72l39.55,11.88,11.88,39.55c1.97,6.55,7.88,10.95,14.72,10.95s12.75-4.4,14.72-10.95l11.88-39.55,39.55-11.88c6.55-1.97,10.95-7.88,10.95-14.72s-4.4-12.75-10.95-14.72l-39.55-11.88-11.88-39.55c-1.97-6.55-7.88-10.95-14.72-10.95h0Z"/><path class="cls-2" d="m459.69,148.36c-11.25,0-19.95-2.75-26.09-8.24-6.15-5.49-9.22-13.74-9.22-24.73v-21.94c0-11.16,3.09-19.49,9.28-24.99,6.19-5.49,14.91-8.24,26.16-8.24,7.87,0,14.58,1.26,20.12,3.76,5.54,2.51,9.63,6.08,12.27,10.71,2.64,4.63,3.53,10.06,2.66,16.29-.09.43-.26.84-.52,1.23s-.65.58-1.17.58h-15.32c-1.04,0-1.52-.56-1.43-1.69.09-4.59-1.19-8.22-3.83-10.9-2.64-2.68-6.82-4.02-12.53-4.02s-9.67,1.45-12.66,4.35c-2.99,2.9-4.48,7.38-4.48,13.44v20.64c0,6.06,1.49,10.54,4.48,13.44,2.99,2.9,7.2,4.35,12.66,4.35,5.88,0,10.14-1.41,12.79-4.22,2.64-2.81,3.83-6.38,3.57-10.71-.09-1.12.39-1.69,1.43-1.69h15.19c1.04,0,1.64.61,1.82,1.82.6,6.23-.43,11.66-3.12,16.29-2.68,4.63-6.75,8.2-12.2,10.71-5.45,2.51-12.07,3.76-19.86,3.76Z"/><path class="cls-2" d="m510.7,146.8c-1.12,0-1.69-.56-1.69-1.69V59.83c0-1.12.56-1.69,1.69-1.69h14.67c1.12,0,1.69.56,1.69,1.69v85.28c0,1.13-.56,1.69-1.69,1.69h-14.67Zm40.11,0c-1.13,0-1.69-.56-1.69-1.69v-39.2c0-3.12-.63-5.45-1.88-7.01-1.26-1.56-3.27-2.34-6.04-2.34s-5.54.84-8.31,2.53c-2.77,1.69-5.45,3.96-8.05,6.81l-1.04-12.07c2.25-2.42,4.61-4.59,7.07-6.49,2.47-1.9,5.13-3.44,7.98-4.61,2.86-1.17,6.06-1.75,9.61-1.75,6.23,0,10.9,1.73,14.02,5.19,3.12,3.46,4.67,8.83,4.67,16.1v42.84c0,1.13-.56,1.69-1.69,1.69h-14.67Z"/><path class="cls-2" d="m583.39,146.8c-1.12,0-1.69-.56-1.69-1.69v-46.21c0-2.68-.07-5.21-.19-7.59-.13-2.38-.33-4.69-.58-6.94-.17-1.21.39-1.82,1.69-1.82h12.85c.95,0,1.56.48,1.82,1.43.34,1.47.6,3.16.78,5.06.17,1.9.3,3.68.39,5.32l1.3,7.92v42.84c0,1.13-.56,1.69-1.69,1.69h-14.67Zm15.06-37.51l-1.04-15.06c1.73-2.51,3.72-4.76,5.97-6.75,2.25-1.99,4.52-3.57,6.81-4.74,2.29-1.17,4.43-1.75,6.43-1.75,1.38,0,2.51.17,3.37.52.86.26,1.34.87,1.43,1.82,0,2.25-.02,4.72-.07,7.4-.04,2.68-.19,5.19-.45,7.53-.17,1.3-.82,1.82-1.95,1.56-.52-.17-1.17-.3-1.95-.39-.78-.09-1.52-.13-2.21-.13-1.82,0-3.68.39-5.58,1.17-1.9.78-3.79,1.88-5.65,3.31-1.86,1.43-3.57,3.27-5.13,5.52Z"/><path class="cls-2" d="m638.94,74.24c-3.2,0-5.67-.82-7.4-2.47-1.73-1.64-2.6-3.81-2.6-6.49v-2.34c0-2.86.86-5.08,2.6-6.68,1.73-1.6,4.2-2.4,7.4-2.4s5.78.8,7.46,2.4c1.69,1.6,2.53,3.83,2.53,6.68v2.34c0,2.68-.84,4.85-2.53,6.49-1.69,1.65-4.18,2.47-7.46,2.47Zm-7.4,72.56c-1.12,0-1.69-.56-1.69-1.69v-60.88c0-1.12.56-1.69,1.69-1.69h14.67c1.12,0,1.69.56,1.69,1.69v60.88c0,1.13-.56,1.69-1.69,1.69h-14.67Z"/><path class="cls-2" d="m685.8,148.36c-9.09,0-15.69-1.69-19.8-5.06-4.11-3.37-5.95-8.65-5.52-15.84.09-1.04.65-1.56,1.69-1.56h13.76c1.04,0,1.56.52,1.56,1.56,0,2.68.67,4.67,2.01,5.97,1.34,1.3,3.44,1.95,6.29,1.95,3.03,0,5.28-.47,6.75-1.43,1.47-.95,2.21-2.42,2.21-4.41,0-1.56-.52-2.83-1.56-3.83-1.04-.99-2.77-2.01-5.19-3.05l-14.93-6.36c-4.33-1.82-7.44-4.04-9.35-6.68-1.9-2.64-2.86-6.08-2.86-10.32,0-6.14,2.01-10.73,6.04-13.76,4.02-3.03,10.28-4.54,18.76-4.54s15.21,1.58,19.41,4.74c4.2,3.16,6.3,7.85,6.3,14.08,0,1.13-.56,1.69-1.69,1.69h-13.63c-1.12,0-1.69-.69-1.69-2.08,0-1.82-.67-3.18-2.01-4.09-1.34-.91-3.31-1.36-5.91-1.36s-4.5.43-5.71,1.3c-1.21.87-1.82,2.21-1.82,4.02,0,1.3.43,2.34,1.3,3.12.86.78,2.51,1.69,4.93,2.73l14.8,6.23c4.5,1.82,7.77,4.07,9.8,6.75,2.03,2.68,3.05,6.23,3.05,10.64,0,6.49-2.29,11.38-6.88,14.67-4.59,3.29-11.29,4.93-20.12,4.93Z"/><path class="cls-2" d="m751.36,148.36c-5.37,0-9.67-.8-12.92-2.4s-5.58-4.11-7.01-7.53c-1.43-3.42-2.14-7.9-2.14-13.44v-27.39h-9.35c-1.13,0-1.69-.56-1.69-1.69v-11.68c0-1.12.56-1.69,1.69-1.69h9.87l1.95-15.45c.26-1.12.86-1.69,1.82-1.69h12.07c1.12,0,1.69.56,1.69,1.69v15.45h16.75c1.12,0,1.69.56,1.69,1.69v11.68c0,1.13-.56,1.69-1.69,1.69h-16.75v26.22c0,3.12.6,5.41,1.82,6.88,1.21,1.47,3.16,2.21,5.84,2.21,1.47,0,2.96-.15,4.48-.45,1.51-.3,3.01-.71,4.48-1.23,1.3-.52,1.95-.09,1.95,1.3v11.81c0,.87-.43,1.52-1.3,1.95-1.73.6-3.76,1.1-6.1,1.49-2.34.39-4.72.58-7.14.58Z"/><path class="cls-2" d="m785.23,74.24c-3.2,0-5.67-.82-7.4-2.47-1.73-1.64-2.6-3.81-2.6-6.49v-2.34c0-2.86.86-5.08,2.6-6.68,1.73-1.6,4.2-2.4,7.4-2.4s5.78.8,7.46,2.4c1.69,1.6,2.53,3.83,2.53,6.68v2.34c0,2.68-.84,4.85-2.53,6.49-1.69,1.65-4.18,2.47-7.46,2.47Zm-7.4,72.56c-1.12,0-1.69-.56-1.69-1.69v-60.88c0-1.12.56-1.69,1.69-1.69h14.67c1.12,0,1.69.56,1.69,1.69v60.88c0,1.13-.56,1.69-1.69,1.69h-14.67Z"/><path class="cls-2" d="m810.41,146.8c-1.12,0-1.69-.56-1.69-1.69v-46.08c0-2.6-.09-5.19-.26-7.79-.17-2.6-.35-4.85-.52-6.75-.17-1.3.39-1.95,1.69-1.95h12.85c.95,0,1.56.48,1.82,1.43.17.78.34,1.8.52,3.05.17,1.26.34,2.58.52,3.96.17,1.39.26,2.64.26,3.76l1.17,6.49v43.87c0,1.13-.56,1.69-1.69,1.69h-14.67Zm40.11,0c-1.13,0-1.69-.56-1.69-1.69v-39.2c0-3.2-.63-5.56-1.88-7.07-1.26-1.51-3.27-2.27-6.04-2.27s-5.47.82-8.11,2.47c-2.64,1.64-5.43,3.98-8.37,7.01l-1.04-12.07c2.25-2.42,4.61-4.61,7.07-6.56,2.47-1.95,5.15-3.5,8.05-4.67,2.9-1.17,6.12-1.75,9.67-1.75,6.14,0,10.79,1.73,13.95,5.19,3.16,3.46,4.74,8.83,4.74,16.1v42.84c0,1.13-.56,1.69-1.69,1.69h-14.67Z"/><path class="cls-2" d="m894.66,148.36c-5.19,0-9.22-1.58-12.07-4.74-2.86-3.16-4.28-7.64-4.28-13.44,0-4.5.84-8.16,2.53-10.97,1.69-2.81,4.5-5.02,8.44-6.62,3.94-1.6,9.19-2.66,15.77-3.18l12.07-1.17-.13,9.87-9.61.91c-4.41.43-7.46,1.32-9.15,2.66-1.69,1.34-2.53,3.48-2.53,6.43,0,2.34.47,4.02,1.43,5.06.95,1.04,2.38,1.56,4.28,1.56,2.42,0,4.85-.73,7.27-2.21,2.42-1.47,5.37-4.07,8.83-7.79l.78,10.77c-2.42,2.51-4.83,4.74-7.2,6.69-2.38,1.95-4.89,3.46-7.53,4.54-2.64,1.08-5.6,1.62-8.89,1.62Zm24.92-1.56c-.52,0-.91-.15-1.17-.45-.26-.3-.48-.71-.65-1.23-.17-.95-.39-2.4-.65-4.35-.26-1.95-.48-3.87-.65-5.78l-1.3-5.45v-26.09c0-3.29-.63-5.6-1.88-6.94-1.25-1.34-3.48-2.01-6.68-2.01-5.89,0-8.7,2.21-8.44,6.62.09,1.13-.48,1.69-1.69,1.69h-13.63c-1.04,0-1.65-.69-1.82-2.08-.52-6.32,1.49-11.18,6.04-14.6,4.54-3.42,11.27-5.13,20.19-5.13s15.68,1.84,19.8,5.52c4.11,3.68,6.17,9.5,6.17,17.46v26.35c0,2.77.07,5.34.2,7.72.13,2.38.32,4.7.58,6.94.17,1.21-.39,1.82-1.69,1.82h-12.72Z"/><path class="cls-2" d="m945.15,101.63c-1.21,0-1.69-.65-1.43-1.95l6.75-36.35c.17-1.04.73-1.56,1.69-1.56h17.65c1.47,0,1.95.74,1.43,2.21l-11.55,36.22c-.26.95-.87,1.43-1.82,1.43h-12.72Z"/><path class="cls-2" d="m1007.98,148.36c-9.09,0-15.69-1.69-19.8-5.06-4.11-3.37-5.95-8.65-5.52-15.84.09-1.04.65-1.56,1.69-1.56h13.76c1.04,0,1.56.52,1.56,1.56,0,2.68.67,4.67,2.01,5.97,1.34,1.3,3.44,1.95,6.29,1.95,3.03,0,5.28-.47,6.75-1.43,1.47-.95,2.21-2.42,2.21-4.41,0-1.56-.52-2.83-1.56-3.83-1.04-.99-2.77-2.01-5.19-3.05l-14.93-6.36c-4.33-1.82-7.44-4.04-9.35-6.68-1.9-2.64-2.86-6.08-2.86-10.32,0-6.14,2.01-10.73,6.04-13.76,4.02-3.03,10.28-4.54,18.76-4.54s15.21,1.58,19.41,4.74c4.2,3.16,6.3,7.85,6.3,14.08,0,1.13-.56,1.69-1.69,1.69h-13.63c-1.12,0-1.69-.69-1.69-2.08,0-1.82-.67-3.18-2.01-4.09-1.34-.91-3.31-1.36-5.91-1.36s-4.5.43-5.71,1.3c-1.21.87-1.82,2.21-1.82,4.02,0,1.3.43,2.34,1.3,3.12.86.78,2.51,1.69,4.93,2.73l14.8,6.23c4.5,1.82,7.77,4.07,9.8,6.75,2.03,2.68,3.05,6.23,3.05,10.64,0,6.49-2.29,11.38-6.88,14.67-4.59,3.29-11.29,4.93-20.12,4.93Z"/><path class="cls-2" d="m459.69,280.65c-11.25,0-19.95-2.75-26.09-8.24-6.15-5.49-9.22-13.74-9.22-24.73v-21.94c0-11.16,3.09-19.49,9.28-24.99,6.19-5.49,14.91-8.24,26.16-8.24,7.87,0,14.58,1.26,20.12,3.76,5.54,2.51,9.63,6.08,12.27,10.71,2.64,4.63,3.53,10.06,2.66,16.29-.09.43-.26.84-.52,1.23s-.65.58-1.17.58h-15.32c-1.04,0-1.52-.56-1.43-1.69.09-4.59-1.19-8.22-3.83-10.9-2.64-2.68-6.82-4.02-12.53-4.02s-9.67,1.45-12.66,4.35c-2.99,2.9-4.48,7.38-4.48,13.44v20.64c0,6.06,1.49,10.54,4.48,13.44,2.99,2.9,7.2,4.35,12.66,4.35,5.88,0,10.14-1.41,12.79-4.22,2.64-2.81,3.83-6.38,3.57-10.71-.09-1.12.39-1.69,1.43-1.69h15.19c1.04,0,1.64.61,1.82,1.82.6,6.23-.43,11.66-3.12,16.29-2.68,4.63-6.75,8.2-12.2,10.71-5.45,2.51-12.07,3.76-19.86,3.76Z"/><path class="cls-2" d="m510.7,279.1c-1.12,0-1.69-.56-1.69-1.69v-85.28c0-1.12.56-1.69,1.69-1.69h14.67c1.12,0,1.69.56,1.69,1.69v85.28c0,1.13-.56,1.69-1.69,1.69h-14.67Z"/><path class="cls-2" d="m569.5,280.65c-10.04,0-17.46-2.14-22.26-6.43-4.8-4.28-7.2-10.62-7.2-19.02v-14.93c0-8.83,2.4-15.53,7.2-20.12,4.8-4.59,12.14-6.88,22-6.88s16.85,2.21,21.74,6.62c4.89,4.41,7.33,10.9,7.33,19.47v10.13c0,1.13-.56,1.69-1.69,1.69h-38.68v3.89c0,3.98.89,6.94,2.66,8.89,1.77,1.95,4.69,2.92,8.76,2.92,3.12,0,5.58-.5,7.4-1.49,1.82-.99,2.73-2.49,2.73-4.48,0-1.12.56-1.69,1.69-1.69h14.15c1.04,0,1.6.56,1.69,1.69.17,6.58-2.03,11.51-6.62,14.8-4.59,3.29-11.55,4.93-20.9,4.93Zm-11.55-40.37h22.72v-.65c0-4.33-.91-7.48-2.73-9.48-1.82-1.99-4.63-2.99-8.44-2.99-4.07,0-7.01,1.02-8.83,3.05-1.82,2.03-2.73,5.21-2.73,9.54v.52Z"/><path class="cls-2" d="m624.54,280.65c-5.19,0-9.22-1.58-12.07-4.74-2.86-3.16-4.28-7.64-4.28-13.44,0-4.5.84-8.16,2.53-10.97,1.69-2.81,4.5-5.02,8.44-6.62,3.94-1.6,9.19-2.66,15.77-3.18l12.07-1.17-.13,9.87-9.61.91c-4.41.43-7.46,1.32-9.15,2.66-1.69,1.34-2.53,3.48-2.53,6.43,0,2.34.47,4.02,1.43,5.06.95,1.04,2.38,1.56,4.28,1.56,2.42,0,4.85-.73,7.27-2.21,2.42-1.47,5.37-4.07,8.83-7.79l.78,10.77c-2.42,2.51-4.83,4.74-7.2,6.69-2.38,1.95-4.89,3.46-7.53,4.54-2.64,1.08-5.6,1.62-8.89,1.62Zm24.92-1.56c-.52,0-.91-.15-1.17-.45-.26-.3-.48-.71-.65-1.23-.17-.95-.39-2.4-.65-4.35-.26-1.95-.48-3.87-.65-5.78l-1.3-5.45v-26.09c0-3.29-.63-5.6-1.88-6.94-1.25-1.34-3.48-2.01-6.68-2.01-5.89,0-8.7,2.21-8.44,6.62.09,1.13-.48,1.69-1.69,1.69h-13.63c-1.04,0-1.65-.69-1.82-2.08-.52-6.32,1.49-11.18,6.04-14.6,4.54-3.42,11.27-5.13,20.19-5.13s15.68,1.84,19.8,5.52c4.11,3.68,6.17,9.5,6.17,17.46v26.35c0,2.77.07,5.34.2,7.72.13,2.38.32,4.7.58,6.94.17,1.21-.39,1.82-1.69,1.82h-12.72Z"/><path class="cls-2" d="m679.31,279.1c-1.12,0-1.69-.56-1.69-1.69v-46.08c0-2.6-.09-5.19-.26-7.79-.17-2.6-.35-4.85-.52-6.75-.17-1.3.39-1.95,1.69-1.95h12.85c.95,0,1.56.48,1.82,1.43.17.78.34,1.8.52,3.05.17,1.26.34,2.58.52,3.96.17,1.39.26,2.64.26,3.76l1.17,6.49v43.87c0,1.13-.56,1.69-1.69,1.69h-14.67Zm40.11,0c-1.13,0-1.69-.56-1.69-1.69v-39.2c0-3.2-.63-5.56-1.88-7.07-1.26-1.51-3.27-2.27-6.04-2.27s-5.47.82-8.11,2.47c-2.64,1.64-5.43,3.98-8.37,7.01l-1.04-12.07c2.25-2.42,4.61-4.61,7.07-6.56,2.47-1.95,5.15-3.5,8.05-4.67,2.9-1.17,6.12-1.75,9.67-1.75,6.14,0,10.79,1.73,13.95,5.19,3.16,3.46,4.74,8.83,4.74,16.1v42.84c0,1.13-.56,1.69-1.69,1.69h-14.67Z"/><path class="cls-2" d="m778.22,280.65c-10.04,0-17.46-2.14-22.26-6.43-4.8-4.28-7.2-10.62-7.2-19.02v-14.93c0-8.83,2.4-15.53,7.2-20.12,4.8-4.59,12.14-6.88,22-6.88s16.85,2.21,21.74,6.62c4.89,4.41,7.33,10.9,7.33,19.47v10.13c0,1.13-.56,1.69-1.69,1.69h-38.68v3.89c0,3.98.89,6.94,2.66,8.89,1.77,1.95,4.69,2.92,8.76,2.92,3.12,0,5.58-.5,7.4-1.49,1.82-.99,2.73-2.49,2.73-4.48,0-1.12.56-1.69,1.69-1.69h14.15c1.04,0,1.6.56,1.69,1.69.17,6.58-2.03,11.51-6.62,14.8-4.59,3.29-11.55,4.93-20.9,4.93Zm-11.55-40.37h22.72v-.65c0-4.33-.91-7.48-2.73-9.48-1.82-1.99-4.63-2.99-8.44-2.99-4.07,0-7.01,1.02-8.83,3.05-1.82,2.03-2.73,5.21-2.73,9.54v.52Z"/><path class="cls-2" d="m821.71,279.1c-1.12,0-1.69-.56-1.69-1.69v-46.21c0-2.68-.07-5.21-.19-7.59-.13-2.38-.33-4.69-.58-6.94-.17-1.21.39-1.82,1.69-1.82h12.85c.95,0,1.56.48,1.82,1.43.34,1.47.6,3.16.78,5.06.17,1.9.3,3.68.39,5.32l1.3,7.92v42.84c0,1.13-.56,1.69-1.69,1.69h-14.67Zm15.06-37.51l-1.04-15.06c1.73-2.51,3.72-4.76,5.97-6.75,2.25-1.99,4.52-3.57,6.81-4.74,2.29-1.17,4.43-1.75,6.43-1.75,1.38,0,2.51.17,3.37.52.86.26,1.34.87,1.43,1.82,0,2.25-.02,4.72-.07,7.4-.04,2.68-.19,5.19-.45,7.53-.17,1.3-.82,1.82-1.95,1.56-.52-.17-1.17-.3-1.95-.39-.78-.09-1.52-.13-2.21-.13-1.82,0-3.68.39-5.58,1.17-1.9.78-3.79,1.88-5.65,3.31-1.86,1.43-3.57,3.27-5.13,5.52Z"/><path class="cls-2" d="m891.54,280.65c-9.09,0-15.69-1.69-19.8-5.06-4.11-3.37-5.95-8.65-5.52-15.84.09-1.04.65-1.56,1.69-1.56h13.76c1.04,0,1.56.52,1.56,1.56,0,2.68.67,4.67,2.01,5.97,1.34,1.3,3.44,1.95,6.29,1.95,3.03,0,5.28-.47,6.75-1.43,1.47-.95,2.21-2.42,2.21-4.41,0-1.56-.52-2.83-1.56-3.83-1.04-.99-2.77-2.01-5.19-3.05l-14.93-6.36c-4.33-1.82-7.44-4.04-9.35-6.68-1.9-2.64-2.86-6.08-2.86-10.32,0-6.14,2.01-10.73,6.04-13.76,4.02-3.03,10.28-4.54,18.76-4.54s15.21,1.58,19.41,4.74c4.2,3.16,6.3,7.85,6.3,14.08,0,1.13-.56,1.69-1.69,1.69h-13.63c-1.12,0-1.69-.69-1.69-2.08,0-1.82-.67-3.18-2.01-4.09-1.34-.91-3.31-1.36-5.91-1.36s-4.5.43-5.71,1.3c-1.21.87-1.82,2.21-1.82,4.02,0,1.3.43,2.34,1.3,3.12.86.78,2.51,1.69,4.93,2.73l14.8,6.23c4.5,1.82,7.77,4.07,9.8,6.75,2.03,2.68,3.05,6.23,3.05,10.64,0,6.49-2.29,11.38-6.88,14.67-4.59,3.29-11.29,4.93-20.12,4.93Z"/></g></svg>